<svg width="80" height="80" viewBox="0 0 80 80" fill="none" xmlns="http://www.w3.org/2000/svg">
<path d="M0 40C0 17.9086 17.9086 0 40 0V0C62.0914 0 80 17.9086 80 40V40C80 62.0914 62.0914 80 40 80V80C17.9086 80 0 62.0914 0 40V40Z" fill="white"/>
<g clip-path="url(#clip0_2626_730)">
<path d="M34.6013 20.0987C32.402 20.0987 30.6193 21.8854 30.6193 24.0887C30.6188 24.6121 30.7214 25.1306 30.9212 25.6144C31.121 26.0982 31.4142 26.5379 31.784 26.9084C32.1537 27.2789 32.5929 27.5729 33.0763 27.7737C33.5597 27.9745 34.0779 28.0782 34.6013 28.0787H38.584V24.0887C38.5849 23.0315 38.1658 22.0172 37.4189 21.269C36.672 20.5207 35.6585 20.0998 34.6013 20.0987ZM34.6013 30.7387H23.982C21.7827 30.7387 20 32.5254 20 34.7294C20 36.9327 21.7827 38.7194 23.982 38.7194H34.602C36.8007 38.7194 38.584 36.9327 38.584 34.7294C38.584 32.5254 36.8007 30.7387 34.6013 30.7387Z" fill="#36C5F0"/>
<path d="M59.8228 34.7293C59.8228 32.5253 58.0394 30.7386 55.8401 30.7386C53.6408 30.7386 51.8581 32.5253 51.8581 34.7293V38.7193H55.8401C56.8973 38.7182 57.9108 38.2973 58.6577 37.549C59.4046 36.8008 59.8237 35.7865 59.8228 34.7293ZM49.2034 34.7293V24.0886C49.2043 23.0314 48.7852 22.0171 48.0384 21.2689C47.2915 20.5206 46.278 20.0997 45.2208 20.0986C43.0214 20.0986 41.2388 21.8853 41.2388 24.0886V34.7286C41.2388 36.9333 43.0214 38.72 45.2208 38.72C46.278 38.7189 47.2915 38.298 48.0384 37.5497C48.7852 36.8015 49.2043 35.7872 49.2034 34.73" fill="#2EB67D"/>
<path d="M45.2208 60.0001C46.278 59.999 47.2915 59.578 48.0384 58.8298C48.7852 58.0815 49.2043 57.0673 49.2034 56.0101C49.2043 54.9528 48.7852 53.9386 48.0384 53.1903C47.2915 52.4421 46.278 52.0211 45.2208 52.0201H41.2388V56.0101C41.2388 58.2134 43.0214 60.0001 45.2208 60.0001ZM45.2208 49.3601H55.8408C58.0394 49.3601 59.8228 47.5734 59.8228 45.3694C59.8237 44.3122 59.4046 43.2979 58.6577 42.5497C57.9108 41.8014 56.8973 41.3805 55.8401 41.3794H45.2208C43.0214 41.3794 41.2388 43.1661 41.2388 45.3694C41.2382 45.8928 41.3408 46.4113 41.5407 46.8951C41.7405 47.3789 42.0337 47.8186 42.4034 48.1891C42.7732 48.5596 43.2123 48.8536 43.6957 49.0544C44.1791 49.2552 44.6973 49.3589 45.2208 49.3594" fill="#ECB22E"/>
<path d="M20 45.3693C19.9995 45.8928 20.1021 46.4112 20.3019 46.895C20.5017 47.3788 20.7949 47.8185 21.1646 48.189C21.5344 48.5595 21.9735 48.8536 22.4569 49.0544C22.9403 49.2552 23.4586 49.3588 23.982 49.3593C25.0392 49.3583 26.0527 48.9373 26.7996 48.1891C27.5465 47.4408 27.9656 46.4265 27.9647 45.3693V41.3793H23.982C21.7827 41.3793 20 43.166 20 45.3693ZM30.6193 45.3693V56.0093C30.6193 58.2133 32.402 60 34.6013 60C35.6585 59.9989 36.6721 59.578 37.4189 58.8297C38.1658 58.0815 38.5849 57.0672 38.584 56.01V45.3693C38.5845 44.8458 38.4819 44.3273 38.2821 43.8435C38.0822 43.3596 37.789 42.9199 37.4191 42.5494C37.0493 42.1789 36.6101 41.8849 36.1266 41.6841C35.6431 41.4833 35.1248 41.3798 34.6013 41.3793C32.402 41.3793 30.6193 43.166 30.6193 45.3693Z" fill="#E01E5A"/>
</g>
<defs>
<clipPath id="clip0_2626_730">
<rect width="40" height="40" fill="white" transform="translate(20 20)"/>
</clipPath>
</defs>
</svg>
