<svg width="80" height="80" viewBox="0 0 80 80" fill="none" xmlns="http://www.w3.org/2000/svg">
<path d="M0 40C0 17.9086 17.9086 0 40 0V0C62.0914 0 80 17.9086 80 40V40C80 62.0914 62.0914 80 40 80V80C17.9086 80 0 62.0914 0 40V40Z" fill="white"/>
<path d="M40 62C52.1503 62 62 52.1503 62 40C62 27.8497 52.1503 18 40 18C27.8497 18 18 27.8497 18 40C18 52.1503 27.8497 62 40 62Z" fill="#2CA01C"/>
<path d="M24.1111 40C24.1111 42.2691 25.0125 44.4452 26.617 46.0497C28.2215 47.6542 30.3976 48.5555 32.6667 48.5555H33.8889V45.3778H32.6667C31.2404 45.3778 29.8725 44.8112 28.864 43.8026C27.8555 42.7941 27.2889 41.4263 27.2889 40C27.2889 38.5737 27.8555 37.2058 28.864 36.1973C29.8725 35.1888 31.2404 34.6222 32.6667 34.6222H35.6V51.2444C35.6 51.6617 35.6822 52.075 35.8419 52.4605C36.0016 52.8461 36.2357 53.1964 36.5308 53.4915C36.8258 53.7865 37.1762 54.0206 37.5617 54.1803C37.9472 54.34 38.3605 54.4222 38.7778 54.4222V31.4444H32.6667C30.3976 31.4444 28.2215 32.3458 26.617 33.9503C25.0125 35.5548 24.1111 37.7309 24.1111 40ZM47.3333 31.4444H46.1111V34.6222H47.3333C48.7596 34.6222 50.1275 35.1888 51.136 36.1973C52.1445 37.2058 52.7111 38.5737 52.7111 40C52.7111 41.4263 52.1445 42.7941 51.136 43.8026C50.1275 44.8112 48.7596 45.3778 47.3333 45.3778H44.4V28.7555C44.4 27.9127 44.0652 27.1045 43.4693 26.5085C42.8733 25.9126 42.065 25.5778 41.2222 25.5778V48.5555H47.3333C48.4569 48.5555 49.5694 48.3342 50.6074 47.9043C51.6454 47.4743 52.5886 46.8441 53.383 46.0497C54.1775 45.2552 54.8077 44.3121 55.2376 43.274C55.6676 42.236 55.8889 41.1235 55.8889 40C55.8889 38.8764 55.6676 37.7639 55.2376 36.7259C54.8077 35.6879 54.1775 34.7447 53.383 33.9503C52.5886 33.1558 51.6454 32.5256 50.6074 32.0957C49.5694 31.6657 48.4569 31.4444 47.3333 31.4444Z" fill="white"/>
</svg>
