<svg width="80" height="80" viewBox="0 0 80 80" fill="none" xmlns="http://www.w3.org/2000/svg">
<path d="M0 40C0 17.9086 17.9086 0 40 0V0C62.0914 0 80 17.9086 80 40V40C80 62.0914 62.0914 80 40 80V80C17.9086 80 0 62.0914 0 40V40Z" fill="white"/>
<path d="M31.9186 46.442C31.9407 46.4687 31.9542 46.5015 31.9573 46.5361C31.9604 46.5706 31.9529 46.6053 31.9359 46.6356C31.8532 46.7698 31.7347 46.8782 31.5937 46.9486C31.4527 47.0191 31.2948 47.0487 31.1378 47.0342C30.8581 47.0041 30.6003 46.8689 30.4164 46.656C30.2326 46.443 30.1364 46.1682 30.1474 45.8871C30.1426 45.504 30.2126 45.1236 30.3533 44.7673C30.4421 44.544 30.4514 44.2969 30.3795 44.0676C30.3077 43.8383 30.1591 43.6407 29.9587 43.508C29.8401 43.4295 29.707 43.3756 29.5673 43.3495C29.4275 43.3233 29.2839 43.3254 29.145 43.3556C29.0089 43.3843 28.8799 43.4398 28.7655 43.5191C28.6512 43.5983 28.5539 43.6996 28.4793 43.817C28.3737 43.9977 28.2917 44.1911 28.2351 44.3925C28.2242 44.428 28.2154 44.4558 28.2087 44.4738C28.116 44.7239 27.9682 44.7968 27.868 44.7834C27.8207 44.7769 27.7555 44.7452 27.7138 44.6307C27.6614 44.2998 27.6852 43.9613 27.7833 43.641C27.8814 43.3207 28.0513 43.0269 28.28 42.7821C28.4721 42.5758 28.7105 42.4183 28.9755 42.3224C29.2406 42.2266 29.5246 42.1952 29.8042 42.2309C30.1004 42.2716 30.3818 42.3851 30.6234 42.5613C30.8649 42.7375 31.059 42.9708 31.1882 43.2404C31.3191 43.5717 31.3719 43.9288 31.3426 44.2838C31.3132 44.6388 31.2025 44.9823 31.019 45.2877C30.9958 45.3396 30.9745 45.3872 30.9566 45.4303C30.8906 45.5496 30.8544 45.683 30.851 45.8193C30.8476 45.9555 30.8771 46.0906 30.9371 46.213C30.9877 46.286 31.0557 46.3453 31.1349 46.3856C31.2141 46.4258 31.3021 46.4458 31.3909 46.4438C31.4747 46.4426 31.558 46.4308 31.6388 46.4087C31.7439 46.3841 31.8526 46.3588 31.9186 46.4419L31.9186 46.442ZM57.8423 47.0892C57.7835 48.2963 57.5285 49.4858 57.0872 50.6109C54.8857 55.9024 49.6319 58.8482 43.3731 58.6617C37.5385 58.4879 32.5622 55.3996 30.3842 50.3654C29.0093 50.327 27.694 49.7957 26.678 48.8686C25.6284 47.9738 24.9541 46.7168 24.7891 45.3475C24.6826 44.4055 24.7991 43.4516 25.1292 42.5629L23.906 41.5236C18.3094 36.7836 35.8142 17.2673 41.413 22.1656C41.4413 22.1902 43.3175 24.0369 43.3223 24.0415C43.3297 24.0377 44.3575 23.6005 44.3627 23.5984C49.2733 21.5587 53.258 22.5435 53.263 25.7979C53.2656 27.4904 52.1904 29.4631 50.4682 31.2537C51.1565 31.9543 51.6438 32.827 51.8792 33.7805C52.0691 34.4457 52.1717 35.1327 52.1845 35.8244C52.2144 36.5141 52.2475 38.1209 52.2508 38.1495C52.2945 38.1627 52.7917 38.2996 52.9424 38.342C53.9443 38.5618 54.8766 39.025 55.6569 39.6907C56.0689 40.0934 56.3387 40.6192 56.4256 41.1888C56.5318 41.9277 56.3474 42.6791 55.9111 43.2849C56.0246 43.5438 56.1231 43.809 56.2061 44.0792C56.3511 44.5452 56.4565 44.932 56.4728 44.9894C57.0055 44.9894 57.8423 45.6046 57.8423 47.0892L57.8423 47.0892ZM33.1093 44.1855C32.7287 41.7146 31.0623 40.8438 29.9315 40.7817C29.6477 40.7666 29.3631 40.7869 29.0843 40.8421C27.0661 41.2505 25.9263 42.9725 26.1506 45.2101C26.314 46.2138 26.811 47.133 27.5613 47.8193C28.3117 48.5056 29.2715 48.9189 30.2857 48.9923C30.4798 48.9975 30.674 48.9838 30.8654 48.9515C32.9109 48.6016 33.4465 46.3738 33.1093 44.1855ZM36.5588 28.5003C38.2683 27.0948 40.092 25.8342 42.0108 24.7315C42.0108 24.7315 40.4872 22.9595 40.0271 22.8289C37.1972 22.0616 31.084 26.2904 27.1809 31.8773C25.6016 34.1379 23.3408 38.1411 24.4217 40.1999C24.8057 40.6621 25.2389 41.081 25.7136 41.4493C26.4362 40.4307 27.5267 39.7329 28.7544 39.5036C30.2904 35.1858 32.9916 31.3774 36.5588 28.5003ZM42.7093 48.0536C42.7843 48.382 42.9466 48.684 43.1791 48.9278C43.4116 49.1715 43.7056 49.348 44.03 49.4385C44.3675 49.5642 44.7158 49.6591 45.0705 49.7219C49.5469 50.4942 53.7318 47.927 54.6741 47.2804C54.7448 47.2318 54.7915 47.2791 54.7348 47.3648C54.7064 47.4105 54.6756 47.4545 54.6425 47.4968C53.4893 48.9888 50.3892 50.7166 46.3557 50.716C44.5966 50.7157 42.8384 50.094 42.1928 49.1389C41.1912 47.6568 42.1432 45.4935 43.8121 45.7189C43.814 45.7192 44.3831 45.7839 44.5431 45.8017C47.1373 46.0512 49.7521 45.6315 52.1379 44.5827C54.4148 43.5225 55.275 42.3558 55.146 41.4113C55.1028 41.118 54.9649 40.8468 54.7534 40.6391C54.1307 40.1266 53.3914 39.7753 52.6008 39.6164C52.2391 39.5146 51.9937 39.4496 51.7294 39.3622C51.2594 39.2069 51.0271 39.082 50.9744 38.1955C50.9515 37.8078 50.8841 36.4572 50.8597 35.899C50.8167 34.921 50.6996 33.5843 49.8725 33.0323C49.662 32.8938 49.4175 32.8154 49.1657 32.8057C49.0244 32.7971 48.8828 32.811 48.7459 32.8469C48.327 32.9439 47.9452 33.1604 47.6469 33.4701C47.2604 33.8194 46.8059 34.0852 46.3119 34.2506C45.8179 34.416 45.295 34.4775 44.776 34.4313C44.1974 34.4071 43.5842 34.3167 42.8813 34.2749C42.7445 34.2668 42.6072 34.2583 42.4702 34.2513C41.5651 34.275 40.6986 34.623 40.0286 35.2319C39.3585 35.8407 38.9294 36.67 38.8193 37.5686C38.4168 40.3461 40.4221 41.7813 41.001 42.6235C41.0905 42.7308 41.1459 42.8622 41.1604 43.0012C41.1451 43.1552 41.0713 43.2976 40.9543 43.3989V43.3998C40.1535 44.2919 39.5907 45.3716 39.3179 46.539C39.0452 47.7063 39.0713 48.9236 39.3938 50.0782C39.4703 50.3555 39.5684 50.6263 39.6871 50.8883C41.1504 54.318 45.6894 55.915 50.124 54.4623C50.7046 54.2722 51.2682 54.0335 51.8087 53.7487C52.7798 53.2673 53.6543 52.6118 54.3887 51.8147C55.5308 50.6669 56.2823 49.1885 56.5366 47.5894C56.6701 46.7053 56.4747 46.3634 56.2082 46.1989C56.0199 46.0939 55.8021 46.054 55.5888 46.0853C55.4758 45.3911 55.2777 44.7135 54.9989 44.0677C53.7324 45.0234 52.3007 45.7376 50.7755 46.1747C48.9403 46.6932 47.0313 46.9002 45.1277 46.7872C43.903 46.688 43.0928 46.3294 42.7881 47.3227C44.6406 47.9422 46.6074 48.1429 48.5468 47.9103C48.5605 47.9089 48.5743 47.9102 48.5874 47.9141C48.6005 47.9181 48.6128 47.9246 48.6234 47.9333C48.634 47.942 48.6428 47.9526 48.6493 47.9647C48.6557 47.9768 48.6598 47.9901 48.6611 48.0037C48.6631 48.0267 48.658 48.0497 48.6464 48.0696C48.6349 48.0895 48.6174 48.1053 48.5964 48.1149C48.5964 48.1149 46.3218 49.1742 42.7093 48.0536ZM36.0475 31.9473C37.552 30.8911 39.2484 30.139 41.0414 29.7334C43.064 29.2647 45.1664 29.259 47.1915 29.7168C47.2624 29.7331 47.3076 29.6099 47.2442 29.5743C46.1933 29.0272 45.0332 28.7222 43.8491 28.6817C43.8377 28.6815 43.8266 28.6782 43.817 28.6721C43.8074 28.6659 43.7996 28.6573 43.7946 28.647C43.7896 28.6368 43.7875 28.6254 43.7885 28.614C43.7896 28.6026 43.7938 28.5918 43.8006 28.5827C43.9845 28.3412 44.1994 28.125 44.4396 27.9395C44.4504 27.9311 44.4582 27.9195 44.4619 27.9064C44.4656 27.8932 44.465 27.8793 44.4602 27.8665C44.4554 27.8537 44.4467 27.8428 44.4352 27.8353C44.4238 27.8278 44.4103 27.8242 44.3967 27.8249C42.9466 27.9683 41.5531 28.4618 40.3361 29.2629C40.3257 29.27 40.3134 29.2737 40.3008 29.2737C40.2883 29.2737 40.276 29.2699 40.2656 29.2628C40.2553 29.2557 40.2473 29.2456 40.2427 29.2339C40.2381 29.2222 40.2372 29.2094 40.24 29.1972C40.338 28.8298 40.4824 28.4763 40.6696 28.1454C40.6758 28.1341 40.6782 28.121 40.6765 28.1083C40.6748 28.0955 40.669 28.0836 40.66 28.0743C40.6509 28.0651 40.6392 28.0589 40.6265 28.0569C40.6137 28.0548 40.6007 28.0568 40.5892 28.0627C38.829 29.0343 37.2613 30.3194 35.9633 31.8547C35.9531 31.8663 35.9476 31.8813 35.9477 31.8968C35.9479 31.9122 35.9537 31.9271 35.9641 31.9385C35.9745 31.95 35.9888 31.9572 36.0041 31.9588C36.0195 31.9604 36.0349 31.9564 36.0475 31.9473ZM47.8356 41.3753C47.9581 41.4529 48.1049 41.4826 48.2479 41.4589C48.391 41.4351 48.5203 41.3595 48.6111 41.2464C48.724 41.0279 48.5601 40.7315 48.2448 40.5843C48.1222 40.5067 47.9754 40.477 47.8324 40.5009C47.6893 40.5247 47.5601 40.6004 47.4693 40.7135C47.3562 40.9318 47.5203 41.2282 47.8356 41.3753ZM48.8027 37.8315C48.8783 38.225 49.0415 38.5964 49.2802 38.9182C49.5268 38.8879 49.7761 38.8879 50.0227 38.9182C50.1669 38.4863 50.1795 38.0213 50.059 37.5822C49.8808 36.7721 49.6396 36.2818 49.1412 36.358C48.643 36.4344 48.6246 37.0213 48.8027 37.8315ZM49.8629 39.6925C49.7372 39.6565 49.6034 39.6607 49.4802 39.7046C49.3571 39.7485 49.2508 39.8299 49.1762 39.9373C49.1017 40.0448 49.0627 40.1729 49.0648 40.3036C49.0668 40.4344 49.1097 40.5612 49.1875 40.6663C49.2653 40.7713 49.3741 40.8494 49.4986 40.8895C49.623 40.9295 49.7569 40.9296 49.8814 40.8897C50.006 40.8497 50.1148 40.7718 50.1927 40.6668C50.2707 40.5618 50.3137 40.435 50.3159 40.3043C50.334 40.1636 50.2969 40.0213 50.2125 39.9073C50.128 39.7932 50.0028 39.7163 49.8629 39.6925Z" fill="black"/>
<path d="M41.589 39.6202C41.5095 39.609 41.4756 39.575 41.4656 39.5299C41.4347 39.3902 41.6497 39.1602 41.8763 38.9941C42.207 38.7524 42.5943 38.5997 43.001 38.5509C43.4077 38.5021 43.8202 38.5587 44.1987 38.7153C44.5524 38.8612 44.8565 39.106 45.0746 39.4203C45.1556 39.5525 45.1713 39.655 45.1189 39.7087C45.0373 39.7947 44.8292 39.6961 44.4905 39.5476C44.0835 39.3479 43.6338 39.251 43.1808 39.2655C42.6439 39.3538 42.1125 39.4722 41.589 39.6202ZM44.9654 40.3153C44.8191 40.1615 44.6368 40.0463 44.435 39.9801C44.2332 39.914 44.0181 39.8989 43.8091 39.9363C43.5008 39.9691 43.2087 40.0908 42.9683 40.2867C42.8563 40.3671 42.7794 40.4873 42.7532 40.6226C42.7526 40.6377 42.7553 40.6527 42.7612 40.6666C42.767 40.6805 42.7758 40.6929 42.787 40.703C42.8068 40.7211 42.8328 40.7309 42.8596 40.7306C42.9705 40.7143 43.0789 40.6843 43.1824 40.6411C43.6353 40.4704 44.1246 40.4196 44.6029 40.4936C44.8246 40.5185 44.9293 40.5324 44.978 40.4563C44.9904 40.4343 44.9959 40.409 44.9937 40.3839C44.9914 40.3587 44.9816 40.3348 44.9654 40.3153Z" fill="black"/>
</svg>
