<svg width="80" height="80" viewBox="0 0 80 80" fill="none" xmlns="http://www.w3.org/2000/svg">
<path d="M0 40C0 17.9086 17.9086 0 40 0V0C62.0914 0 80 17.9086 80 40V40C80 62.0914 62.0914 80 40 80V80C17.9086 80 0 62.0914 0 40V40Z" fill="white"/>
<path d="M44.9998 40.0088C45.0005 41.451 44.7404 42.8816 44.2319 44.2313C42.8817 44.7397 41.4509 45.0002 40.0081 45.0005H39.9912C38.5056 44.9986 37.0822 44.727 35.7687 44.2319C35.26 42.882 34.9995 41.4513 35 40.0088V39.9912C34.9993 38.5492 35.2592 37.119 35.7672 35.7694C37.1173 35.26 38.5484 34.9994 39.9914 35H40.0083C41.4511 34.9993 42.8821 35.2599 44.232 35.7692C44.7406 37.1187 45.0007 38.549 45 39.9911V40.0086L44.9998 40.0088ZM59.7222 36.6667H48.0478L56.3023 28.4116C55.6544 27.5014 54.9317 26.647 54.1417 25.857V25.8564C53.3517 25.0673 52.4974 24.3453 51.5878 23.6977L43.3327 31.9528V20.2784C42.2347 20.0937 41.1234 20.0006 40.01 20L39.9894 20C38.8569 20.0006 37.7477 20.0969 36.6667 20.2784V31.9528L28.4116 23.6977C27.5018 24.3451 26.6479 25.0677 25.8589 25.8578L25.8545 25.8609C25.0659 26.6499 24.3442 27.503 23.6969 28.4116L31.9527 36.6667H20.2784C20.2784 36.6667 20 38.8594 20 39.9931V40.0069C20 41.1406 20.0961 42.2517 20.2784 43.3333H31.9528L23.697 51.5884C24.9957 53.4109 26.5891 55.0043 28.4116 56.303L36.6667 48.0472V59.7222C37.7634 59.906 38.8735 59.9989 39.9855 60H40.0138C41.1258 59.999 42.2358 59.9061 43.3325 59.7222V48.0472L51.5884 56.303C52.4979 55.6551 53.3519 54.9329 54.1417 54.1436L54.1436 54.1417C54.9325 53.3518 55.6546 52.4977 56.3023 51.5884L48.0466 43.3333H59.7222C59.9039 42.2536 59.9987 41.1458 60 40.0145V39.9855C59.9987 38.8542 59.9039 37.7464 59.7222 36.6667Z" fill="#FF4A00"/>
</svg>
