<svg width="80" height="80" viewBox="0 0 80 80" fill="none" xmlns="http://www.w3.org/2000/svg">
<path d="M0 40C0 17.9086 17.9086 0 40 0V0C62.0914 0 80 17.9086 80 40V40C80 62.0914 62.0914 80 40 80V80C17.9086 80 0 62.0914 0 40V40Z" fill="white"/>
<g clip-path="url(#clip0_2626_724)">
<path d="M47.8156 25.1958V54.3624C47.8156 57.626 50.0672 59.4445 52.4558 59.4445C54.6654 59.4445 57.0959 57.8978 57.0959 54.3624V25.4167C57.0959 22.4249 54.8863 20.5556 52.4558 20.5556C50.0252 20.5556 47.8156 22.6172 47.8156 25.1958Z" fill="#F9AB00"/>
<path d="M35.6629 40V54.3624C35.6629 57.626 37.9144 59.4445 40.303 59.4445C42.5126 59.4445 44.9432 57.8977 44.9432 54.3624V40.221C44.9432 37.2292 42.7336 35.3599 40.303 35.3599C37.8725 35.3599 35.6629 37.4214 35.6629 40Z" fill="#E37400"/>
<path d="M28.1502 59.4445C30.7129 59.4445 32.7904 57.367 32.7904 54.8043C32.7904 52.2417 30.7129 50.1642 28.1502 50.1642C25.5876 50.1642 23.5101 52.2417 23.5101 54.8043C23.5101 57.367 25.5876 59.4445 28.1502 59.4445Z" fill="#E37400"/>
</g>
<defs>
<clipPath id="clip0_2626_724">
<rect width="33.9394" height="40" fill="white" transform="translate(23.3333 20)"/>
</clipPath>
</defs>
</svg>
