<svg width="48" height="48" viewBox="0 0 48 48" fill="none" xmlns="http://www.w3.org/2000/svg">
<path d="M35.9764 45.3333H10.594C9.16139 45.3333 8 44.1781 8 42.7531V5.24686C8 3.82183 9.16139 2.66663 10.594 2.66663H25.5564C35.5175 2.66663 40 9.72613 40 16.7856C40 22.7924 36.8249 28.0561 29.9144 29.79L38.0924 41.2605C39.3106 42.9691 38.0823 45.3333 35.9764 45.3333Z" fill="url(#paint0_linear_2646_580)"/>
<path opacity="0.64" d="M10.6667 2.66663H16V45.3333H10.6667C9.19391 45.3333 8 44.1781 8 42.7531V5.24686C8 3.82183 9.19391 2.66663 10.6667 2.66663Z" fill="url(#paint1_linear_2646_580)"/>
<defs>
<linearGradient id="paint0_linear_2646_580" x1="24.4981" y1="2.66663" x2="24.4981" y2="45.3333" gradientUnits="userSpaceOnUse">
<stop stop-color="#2ED4FF"/>
<stop offset="1" stop-color="#0088FF"/>
</linearGradient>
<linearGradient id="paint1_linear_2646_580" x1="15.2686" y1="2.66663" x2="15.2686" y2="45.3333" gradientUnits="userSpaceOnUse">
<stop stop-color="#3525D3"/>
<stop offset="1" stop-color="#3525D3" stop-opacity="0.24"/>
</linearGradient>
</defs>
</svg>
