<svg width="88" height="88" viewBox="0 0 88 88" fill="none" xmlns="http://www.w3.org/2000/svg">
<g clip-path="url(#clip0_2579_550)">
<circle cx="44" cy="44" r="44" fill="#CFFAFE"/>
<g filter="url(#filter0_d_2579_550)">
<circle cx="44" cy="44" r="32" fill="white"/>
</g>
<path d="M50 42H56L53 38L50 42ZM50 46H56L53 50L50 46Z" fill="#29D2D3"/>
<path d="M33 32H39V56H33C32.7348 56 32.4804 55.8946 32.2929 55.7071C32.1054 55.5196 32 55.2652 32 55V33C32 32.7348 32.1054 32.4804 32.2929 32.2929C32.4804 32.1054 32.7348 32 33 32Z" fill="#29D2D3"/>
<path d="M41 32H47C47.2652 32 47.5196 32.1054 47.7071 32.2929C47.8946 32.4804 48 32.7348 48 33V55C48 55.2652 47.8946 55.5196 47.7071 55.7071C47.5196 55.8946 47.2652 56 47 56H41V32Z" fill="#29D2D3"/>
</g>
<defs>
<filter id="filter0_d_2579_550" x="-8" y="2" width="104" height="104" filterUnits="userSpaceOnUse" color-interpolation-filters="sRGB">
<feFlood flood-opacity="0" result="BackgroundImageFix"/>
<feColorMatrix in="SourceAlpha" type="matrix" values="0 0 0 0 0 0 0 0 0 0 0 0 0 0 0 0 0 0 127 0" result="hardAlpha"/>
<feOffset dy="10"/>
<feGaussianBlur stdDeviation="10"/>
<feColorMatrix type="matrix" values="0 0 0 0 0.109804 0 0 0 0 0.172549 0 0 0 0 0.25098 0 0 0 0.08 0"/>
<feBlend mode="normal" in2="BackgroundImageFix" result="effect1_dropShadow_2579_550"/>
<feBlend mode="normal" in="SourceGraphic" in2="effect1_dropShadow_2579_550" result="shape"/>
</filter>
<clipPath id="clip0_2579_550">
<rect width="88" height="88" fill="white"/>
</clipPath>
</defs>
</svg>
