<svg width="88" height="88" viewBox="0 0 88 88" fill="none" xmlns="http://www.w3.org/2000/svg">
<g clip-path="url(#clip0_2579_551)">
<circle cx="44" cy="44" r="44" fill="#E0F2FE"/>
<g filter="url(#filter0_d_2579_551)">
<circle cx="44" cy="44" r="32" fill="white"/>
</g>
<g clip-path="url(#clip1_2579_551)">
<path d="M43.406 32.132L32.586 37.187C32.5128 37.2206 32.4508 37.2744 32.4074 37.3422C32.364 37.41 32.341 37.4888 32.3411 37.5693C32.3412 37.6498 32.3644 37.7286 32.408 37.7963C32.4516 37.8639 32.5137 37.9176 32.587 37.951L43.492 42.969C43.814 43.117 44.186 43.117 44.508 42.969L55.413 37.951C55.4863 37.9177 55.5485 37.8641 55.5922 37.7965C55.6359 37.7289 55.6592 37.6501 55.6594 37.5696C55.6596 37.4891 55.6367 37.4103 55.5934 37.3424C55.55 37.2746 55.4881 37.2207 55.415 37.187L44.594 32.132C44.408 32.0451 44.2053 32.0001 44 32.0001C43.7947 32.0001 43.592 32.0451 43.406 32.132Z" fill="#0876DD"/>
<path d="M55.415 43.676L53.18 42.632C53.0199 42.5572 52.8455 42.5182 52.6688 42.5177C52.4922 42.5172 52.3175 42.5552 52.157 42.629L44.508 46.149C44.3487 46.2223 44.1754 46.2602 44 46.2602C43.8246 46.2602 43.6513 46.2223 43.492 46.149L35.842 42.629C35.6816 42.5553 35.5072 42.5174 35.3307 42.5179C35.1542 42.5184 34.9799 42.5574 34.82 42.632L32.585 43.676C32.5119 43.7097 32.45 43.7636 32.4066 43.8314C32.3633 43.8993 32.3404 43.9781 32.3406 44.0586C32.3408 44.1391 32.3641 44.2179 32.4078 44.2855C32.4515 44.3531 32.5137 44.4067 32.587 44.44L43.492 49.457C43.6512 49.5307 43.8246 49.5688 44 49.5688C44.1754 49.5688 44.3488 49.5307 44.508 49.457L55.413 44.44C55.4863 44.4067 55.5485 44.3531 55.5922 44.2855C55.6359 44.2179 55.6592 44.1391 55.6594 44.0586C55.6596 43.9781 55.6367 43.8993 55.5934 43.8314C55.55 43.7636 55.4881 43.7097 55.415 43.676Z" fill="#0876DD"/>
<path d="M55.415 50.108L53.18 49.064C53.0199 48.9892 52.8455 48.9502 52.6688 48.9497C52.4922 48.9492 52.3175 48.9872 52.157 49.061L44.508 52.58C44.3487 52.6533 44.1754 52.6912 44 52.6912C43.8246 52.6912 43.6513 52.6533 43.492 52.58L35.842 49.06C35.6816 48.9863 35.5072 48.9484 35.3307 48.9489C35.1542 48.9494 34.9799 48.9884 34.82 49.063L32.585 50.108C32.5122 50.1418 32.4505 50.1957 32.4074 50.2634C32.3643 50.3312 32.3415 50.4098 32.3417 50.4901C32.3419 50.5704 32.3651 50.649 32.4086 50.7165C32.4521 50.784 32.514 50.8376 32.587 50.871L43.492 55.889C43.814 56.037 44.186 56.037 44.508 55.889L55.413 50.871C55.486 50.8376 55.5479 50.784 55.5914 50.7165C55.6349 50.649 55.6581 50.5704 55.6583 50.4901C55.6585 50.4098 55.6357 50.3312 55.5926 50.2634C55.5495 50.1957 55.4878 50.1418 55.415 50.108Z" fill="#0876DD"/>
</g>
</g>
<defs>
<filter id="filter0_d_2579_551" x="-8" y="2" width="104" height="104" filterUnits="userSpaceOnUse" color-interpolation-filters="sRGB">
<feFlood flood-opacity="0" result="BackgroundImageFix"/>
<feColorMatrix in="SourceAlpha" type="matrix" values="0 0 0 0 0 0 0 0 0 0 0 0 0 0 0 0 0 0 127 0" result="hardAlpha"/>
<feOffset dy="10"/>
<feGaussianBlur stdDeviation="10"/>
<feColorMatrix type="matrix" values="0 0 0 0 0.109804 0 0 0 0 0.172549 0 0 0 0 0.25098 0 0 0 0.08 0"/>
<feBlend mode="normal" in2="BackgroundImageFix" result="effect1_dropShadow_2579_551"/>
<feBlend mode="normal" in="SourceGraphic" in2="effect1_dropShadow_2579_551" result="shape"/>
</filter>
<clipPath id="clip0_2579_551">
<rect width="88" height="88" fill="white"/>
</clipPath>
<clipPath id="clip1_2579_551">
<rect width="24" height="24" fill="white" transform="translate(32 32)"/>
</clipPath>
</defs>
</svg>
