<svg width="88" height="88" viewBox="0 0 88 88" fill="none" xmlns="http://www.w3.org/2000/svg">
<g clip-path="url(#clip0_2579_553)">
<circle cx="44" cy="44" r="44" fill="#CFFAFE"/>
<g filter="url(#filter0_d_2579_553)">
<circle cx="44" cy="44" r="32" fill="white"/>
</g>
<path d="M37 33H34C33.7348 33 33.4804 33.1054 33.2929 33.2929C33.1054 33.4804 33 33.7348 33 34V54C33 54.2652 33.1054 54.5196 33.2929 54.7071C33.4804 54.8946 33.7348 55 34 55H37V33Z" fill="#29D2D3"/>
<path d="M39 55H49V33H39V55ZM44 51C43.7348 51 43.4804 50.8946 43.2929 50.7071C43.1054 50.5196 43 50.2652 43 50C43 49.7348 43.1054 49.4804 43.2929 49.2929C43.4804 49.1054 43.7348 49 44 49C44.2652 49 44.5196 49.1054 44.7071 49.2929C44.8946 49.4804 45 49.7348 45 50C45 50.2652 44.8946 50.5196 44.7071 50.7071C44.5196 50.8946 44.2652 51 44 51ZM44 37C44.2652 37 44.5196 37.1054 44.7071 37.2929C44.8946 37.4804 45 37.7348 45 38C45 38.2652 44.8946 38.5196 44.7071 38.7071C44.5196 38.8946 44.2652 39 44 39C43.7348 39 43.4804 38.8946 43.2929 38.7071C43.1054 38.5196 43 38.2652 43 38C43 37.7348 43.1054 37.4804 43.2929 37.2929C43.4804 37.1054 43.7348 37 44 37ZM44 43C44.2652 43 44.5196 43.1054 44.7071 43.2929C44.8946 43.4804 45 43.7348 45 44C45 44.2652 44.8946 44.5196 44.7071 44.7071C44.5196 44.8946 44.2652 45 44 45C43.7348 45 43.4804 44.8946 43.2929 44.7071C43.1054 44.5196 43 44.2652 43 44C43 43.7348 43.1054 43.4804 43.2929 43.2929C43.4804 43.1054 43.7348 43 44 43Z" fill="#29D2D3"/>
<path d="M54 33H51V55H54C54.2652 55 54.5196 54.8946 54.7071 54.7071C54.8946 54.5196 55 54.2652 55 54V34C55 33.7348 54.8946 33.4804 54.7071 33.2929C54.5196 33.1054 54.2652 33 54 33Z" fill="#29D2D3"/>
</g>
<defs>
<filter id="filter0_d_2579_553" x="-8" y="2" width="104" height="104" filterUnits="userSpaceOnUse" color-interpolation-filters="sRGB">
<feFlood flood-opacity="0" result="BackgroundImageFix"/>
<feColorMatrix in="SourceAlpha" type="matrix" values="0 0 0 0 0 0 0 0 0 0 0 0 0 0 0 0 0 0 127 0" result="hardAlpha"/>
<feOffset dy="10"/>
<feGaussianBlur stdDeviation="10"/>
<feColorMatrix type="matrix" values="0 0 0 0 0.109804 0 0 0 0 0.172549 0 0 0 0 0.25098 0 0 0 0.08 0"/>
<feBlend mode="normal" in2="BackgroundImageFix" result="effect1_dropShadow_2579_553"/>
<feBlend mode="normal" in="SourceGraphic" in2="effect1_dropShadow_2579_553" result="shape"/>
</filter>
<clipPath id="clip0_2579_553">
<rect width="88" height="88" fill="white"/>
</clipPath>
</defs>
</svg>
