<svg width="88" height="88" viewBox="0 0 88 88" fill="none" xmlns="http://www.w3.org/2000/svg">
<g clip-path="url(#clip0_2579_555)">
<circle cx="44" cy="44" r="44" fill="#E0F2FE"/>
<g filter="url(#filter0_d_2579_555)">
<circle cx="44" cy="44" r="32" fill="white"/>
</g>
<path d="M55 38V34C55 33.7348 54.8946 33.4804 54.7071 33.2929C54.5196 33.1054 54.2652 33 54 33H34C33.7348 33 33.4804 33.1054 33.2929 33.2929C33.1054 33.4804 33 33.7348 33 34V38H55Z" fill="#0876DD"/>
<path d="M33 40V54C33 54.2652 33.1054 54.5196 33.2929 54.7071C33.4804 54.8946 33.7348 55 34 55H39V40H33Z" fill="#0876DD"/>
<path d="M41 55H54C54.2652 55 54.5196 54.8946 54.7071 54.7071C54.8946 54.5196 55 54.2652 55 54V40H41V55Z" fill="#0876DD"/>
</g>
<defs>
<filter id="filter0_d_2579_555" x="-8" y="2" width="104" height="104" filterUnits="userSpaceOnUse" color-interpolation-filters="sRGB">
<feFlood flood-opacity="0" result="BackgroundImageFix"/>
<feColorMatrix in="SourceAlpha" type="matrix" values="0 0 0 0 0 0 0 0 0 0 0 0 0 0 0 0 0 0 127 0" result="hardAlpha"/>
<feOffset dy="10"/>
<feGaussianBlur stdDeviation="10"/>
<feColorMatrix type="matrix" values="0 0 0 0 0.109804 0 0 0 0 0.172549 0 0 0 0 0.25098 0 0 0 0.08 0"/>
<feBlend mode="normal" in2="BackgroundImageFix" result="effect1_dropShadow_2579_555"/>
<feBlend mode="normal" in="SourceGraphic" in2="effect1_dropShadow_2579_555" result="shape"/>
</filter>
<clipPath id="clip0_2579_555">
<rect width="88" height="88" fill="white"/>
</clipPath>
</defs>
</svg>
